<svg width="14" height="15" viewBox="0 0 14 15" fill="none" xmlns="http://www.w3.org/2000/svg">
<path d="M0 3.11563C0.145587 5.19986 1.45587 7.13522 2.62057 8.77284C3.63968 10.2616 4.94996 11.6014 6.26024 12.6436C7.13377 13.3879 8.00729 13.9834 9.0264 14.5789C9.60874 14.8767 10.0455 15.1744 10.7734 14.8767C11.7925 14.5789 14.2675 13.2391 13.9764 11.8992C13.8308 11.1548 12.9572 10.4105 12.3749 9.96383C11.647 9.36834 10.6279 8.47509 9.75433 9.36833C9.31757 9.81496 8.88081 10.8571 8.15287 10.8571C7.42494 11.0059 6.697 9.96383 6.26024 9.51721C5.53231 8.62396 4.80437 7.73072 4.07644 6.83748C3.49409 5.79536 4.22202 5.49761 4.94996 4.90211C5.24113 4.60437 5.67789 4.45549 5.82348 4.00887C6.11466 3.2645 5.38672 2.37125 4.94996 1.77576C4.5132 1.18026 4.07644 0.733639 3.63968 0.287017C3.05733 -0.308479 2.32939 0.138144 1.74704 0.584766C1.01911 1.32914 0.436761 2.07351 0 3.11563Z" fill="#47A7E3"/>
</svg>
