<svg width="20" height="21" viewBox="0 0 20 21" fill="none" xmlns="http://www.w3.org/2000/svg">
<path d="M0 4.36188C0.207981 7.27981 2.07982 9.98931 3.74367 12.282C5.19954 14.3662 7.07137 16.242 8.9432 17.701C10.1911 18.7431 11.439 19.5768 12.8949 20.4105C13.7268 20.8273 14.3507 21.2442 15.3906 20.8273C16.8465 20.4105 20.3822 18.5347 19.9662 16.6589C19.7582 15.6167 18.5104 14.5746 17.6784 13.9494C16.6385 13.1157 15.1826 11.8651 13.9348 13.1157C13.3108 13.7409 12.6869 15.1999 11.647 15.1999C10.6071 15.4083 9.56715 13.9494 8.9432 13.3241C7.9033 12.0735 6.86339 10.823 5.82348 9.57247C4.99156 8.1135 6.03146 7.69665 7.07137 6.86296C7.48733 6.44611 8.11128 6.23768 8.31926 5.61241C8.73522 4.5703 7.69531 3.31975 7.07137 2.48606C6.44743 1.65237 5.82348 1.02709 5.19954 0.401824C4.36761 -0.43187 3.3277 0.193402 2.49578 0.818673C1.45587 1.86079 0.623944 2.90291 0 4.36188Z" fill="#47A7E3"/>
</svg>
