<svg width="12" height="12" viewBox="0 0 12 12" fill="none" xmlns="http://www.w3.org/2000/svg">
<path d="M0.501465 2.44792C0.616048 4.05209 1.6473 5.54167 2.56397 6.80208C3.36605 7.94792 4.3973 8.97917 5.42855 9.78125C6.11605 10.3542 6.80355 10.8125 7.60563 11.2708C8.06396 11.5 8.40771 11.7292 8.98063 11.5C9.78271 11.2708 11.7306 10.2396 11.5015 9.20833C11.3869 8.63542 10.6994 8.0625 10.241 7.71875C9.66813 7.26042 8.86605 6.57292 8.17855 7.26042C7.8348 7.60417 7.49105 8.40625 6.91813 8.40625C6.34522 8.52084 5.7723 7.71875 5.42855 7.375C4.85563 6.6875 4.28272 6 3.7098 5.3125C3.25147 4.51042 3.82438 4.28125 4.3973 3.82292C4.62646 3.59375 4.97021 3.47917 5.0848 3.13542C5.31397 2.5625 4.74105 1.875 4.3973 1.41667C4.05355 0.958334 3.7098 0.614584 3.36605 0.270834C2.90771 -0.187499 2.3348 0.156252 1.87646 0.500002C1.30355 1.07292 0.845215 1.64584 0.501465 2.44792Z" fill="#F68738"/>
</svg>
